G75*
G70*
%OFA0B0*%
%FSLAX24Y24*%
%IPPOS*%
%LPD*%
%AMOC8*
5,1,8,0,0,1.08239X$1,22.5*
%
%ADD10R,0.0630X0.0512*%
%ADD11R,0.0394X0.0433*%
%ADD12R,0.0315X0.0315*%
%ADD13R,0.0500X0.1000*%
%ADD14R,0.0787X0.0591*%
%ADD15R,0.0591X0.0787*%
%ADD16R,0.0551X0.0394*%
%ADD17R,0.0433X0.0394*%
%ADD18R,0.0320X0.0660*%
D10*
X005562Y005752D03*
X005562Y006539D03*
X015062Y005539D03*
X016062Y005539D03*
X016062Y004752D03*
X015062Y004752D03*
D11*
X012397Y009145D03*
X011727Y009145D03*
X004397Y006645D03*
X003727Y006645D03*
X002897Y006645D03*
X002227Y006645D03*
X019727Y009145D03*
X020397Y009145D03*
D12*
X004357Y006145D03*
X003767Y006145D03*
X002857Y006145D03*
X002267Y006145D03*
D13*
X008672Y009865D03*
X010452Y009865D03*
X010452Y012425D03*
X008672Y012425D03*
D14*
X005562Y002555D03*
X005562Y003736D03*
D15*
X012971Y005145D03*
X014153Y005145D03*
D16*
X018629Y002519D03*
X019495Y002145D03*
X018629Y001771D03*
X018495Y007771D03*
X017629Y008145D03*
X018495Y008519D03*
X019629Y008145D03*
X020495Y007771D03*
X020495Y008519D03*
X016495Y008271D03*
X015629Y008645D03*
X016495Y009019D03*
D17*
X018562Y011811D03*
X018562Y012480D03*
X025562Y002480D03*
X025562Y001811D03*
D18*
X007692Y007783D03*
X007192Y007783D03*
X006692Y007783D03*
X006192Y007783D03*
X005692Y007783D03*
X005192Y007783D03*
X004692Y007783D03*
X004192Y007783D03*
X003692Y007783D03*
X003192Y007783D03*
X002692Y007783D03*
X002192Y007783D03*
X002192Y012507D03*
X002692Y012507D03*
X003192Y012507D03*
X003692Y012507D03*
X004192Y012507D03*
X004692Y012507D03*
X005192Y012507D03*
X005692Y012507D03*
X006192Y012507D03*
X006692Y012507D03*
X007192Y012507D03*
X007692Y012507D03*
M02*
