G75*
G70*
%OFA0B0*%
%FSLAX24Y24*%
%IPPOS*%
%LPD*%
%AMOC8*
5,1,8,0,0,1.08239X$1,22.5*
%
%ADD10C,0.0320*%
%ADD11C,0.0600*%
%ADD12C,0.0680*%
%ADD13C,0.0785*%
%ADD14C,0.0600*%
%ADD15C,0.0560*%
D10*
X011562Y002145D03*
X016062Y011645D03*
D11*
X016062Y006905D02*
X016062Y006385D01*
X015062Y006385D02*
X015062Y006905D01*
X014062Y006905D02*
X014062Y006385D01*
X013062Y006385D02*
X013062Y006905D01*
X012062Y006905D02*
X012062Y006385D01*
X011062Y006385D02*
X011062Y006905D01*
X010062Y006905D02*
X010062Y006385D01*
X009062Y006385D02*
X009062Y006905D01*
X008062Y006905D02*
X008062Y006385D01*
X007062Y006385D02*
X007062Y006905D01*
X007062Y003905D02*
X007062Y003385D01*
X008062Y003385D02*
X008062Y003905D01*
X009062Y003905D02*
X009062Y003385D01*
X010062Y003385D02*
X010062Y003905D01*
X011062Y003905D02*
X011062Y003385D01*
X012062Y003385D02*
X012062Y003905D01*
X013062Y003905D02*
X013062Y003385D01*
X014062Y003385D02*
X014062Y003905D01*
X015062Y003905D02*
X015062Y003385D01*
X016062Y003385D02*
X016062Y003905D01*
X017062Y003905D02*
X017062Y003385D01*
X018062Y003385D02*
X018062Y003905D01*
X019062Y003905D02*
X019062Y003385D01*
X020062Y003385D02*
X020062Y003905D01*
X020062Y006385D02*
X020062Y006905D01*
X019062Y006905D02*
X019062Y006385D01*
X018062Y006385D02*
X018062Y006905D01*
X017062Y006905D02*
X017062Y006385D01*
D12*
X021762Y006145D02*
X022362Y006145D01*
X022362Y007145D02*
X021762Y007145D01*
X021762Y008145D02*
X022362Y008145D01*
X022062Y011345D02*
X022062Y011945D01*
X021062Y011945D02*
X021062Y011345D01*
X020062Y011345D02*
X020062Y011945D01*
X014362Y011145D02*
X013762Y011145D01*
X013762Y010145D02*
X014362Y010145D01*
X014362Y009145D02*
X013762Y009145D01*
X009062Y002445D02*
X009062Y001845D01*
X008062Y001845D02*
X008062Y002445D01*
X007062Y002445D02*
X007062Y001845D01*
X022062Y001845D02*
X022062Y002445D01*
X023062Y002445D02*
X023062Y001845D01*
X024062Y001845D02*
X024062Y002445D01*
D13*
X003415Y002661D02*
X002710Y002661D01*
X002710Y004629D02*
X003415Y004629D01*
X025210Y004161D02*
X025915Y004161D01*
X025915Y006129D02*
X025210Y006129D01*
X025217Y008177D02*
X025922Y008177D01*
X025922Y010145D02*
X025217Y010145D01*
X025217Y012114D02*
X025922Y012114D01*
D14*
X016512Y002145D03*
X014612Y002145D03*
D15*
X020562Y002145D03*
X023062Y003645D03*
X019562Y005645D03*
X017562Y009145D03*
X012062Y005645D03*
X010062Y005645D03*
X009062Y005645D03*
X006312Y006395D03*
X005062Y011645D03*
M02*
