%
M48
M72
T01C0.0240
T02C0.0320
T03C0.0400
T04C0.0470
%
T01
X9062Y5645
X10062Y5645
X12062Y5645
X6312Y6395
X11562Y2145
X19562Y5645
X23062Y3645
X20562Y2145
X17562Y9145
X16062Y11645
X5062Y11645
T02
X7062Y6645
X8062Y6645
X9062Y6645
X10062Y6645
X11062Y6645
X12062Y6645
X13062Y6645
X14062Y6645
X15062Y6645
X16062Y6645
X17062Y6645
X18062Y6645
X19062Y6645
X20062Y6645
X20062Y3645
X19062Y3645
X18062Y3645
X17062Y3645
X16062Y3645
X15062Y3645
X14062Y3645
X13062Y3645
X12062Y3645
X11062Y3645
X10062Y3645
X9062Y3645
X8062Y3645
X7062Y3645
X14612Y2145
X16512Y2145
T03
X22062Y2145
X23062Y2145
X24062Y2145
X22062Y6145
X22062Y7145
X22062Y8145
X22062Y11645
X21062Y11645
X20062Y11645
X14062Y11145
X14062Y10145
X14062Y9145
X9062Y2145
X8062Y2145
X7062Y2145
T04
X3062Y2661
X3062Y4629
X25562Y4161
X25562Y6129
X25570Y8177
X25570Y10145
X25570Y12114
M30
